<?xml version="1.0" encoding="UTF-8"?>
<svg xmlns="http://www.w3.org/2000/svg" xmlns:xlink="http://www.w3.org/1999/xlink" viewBox="0 0 128 128" width="128px" height="128px">
<g id="surface11578223">
<path style=" stroke:none;fill-rule:nonzero;fill:rgb(88.627452%,0%,24.705882%);fill-opacity:1;" d="M 104.960938 10.238281 L 23.039062 10.238281 C 15.972656 10.238281 10.238281 15.972656 10.238281 23.039062 L 10.238281 104.960938 C 10.238281 112.027344 15.972656 117.761719 23.039062 117.761719 L 104.960938 117.761719 C 112.027344 117.761719 117.761719 112.027344 117.761719 104.960938 L 117.761719 23.039062 C 117.761719 15.972656 112.027344 10.238281 104.960938 10.238281 Z M 43.519531 51.199219 L 43.519531 99.839844 L 28.160156 99.839844 L 28.160156 51.199219 Z M 28.160156 37.042969 C 28.160156 33.460938 31.230469 30.71875 35.839844 30.71875 C 40.449219 30.71875 43.339844 33.460938 43.519531 37.042969 C 43.519531 40.628906 40.652344 43.519531 35.839844 43.519531 C 31.230469 43.519531 28.160156 40.628906 28.160156 37.042969 Z M 99.839844 99.839844 L 84.480469 99.839844 C 84.480469 99.839844 84.480469 76.132812 84.480469 74.238281 C 84.480469 69.121094 81.921875 64 75.519531 63.898438 L 75.316406 63.898438 C 69.121094 63.898438 66.558594 69.171875 66.558594 74.238281 C 66.558594 76.570312 66.558594 99.839844 66.558594 99.839844 L 51.199219 99.839844 L 51.199219 51.199219 L 66.558594 51.199219 L 66.558594 57.753906 C 66.558594 57.753906 71.5 51.199219 81.433594 51.199219 C 91.597656 51.199219 99.839844 58.1875 99.839844 72.34375 Z M 99.839844 99.839844 "/>
</g>
</svg>
