<?xml version="1.0" encoding="UTF-8"?>
<svg xmlns="http://www.w3.org/2000/svg" xmlns:xlink="http://www.w3.org/1999/xlink" viewBox="0 0 128 128" width="128px" height="128px">
<g id="surface11607220">
<path style=" stroke:none;fill-rule:nonzero;fill:rgb(88.627452%,0%,24.705882%);fill-opacity:1;" d="M 35.839844 10.238281 C 21.730469 10.238281 10.238281 21.730469 10.238281 35.839844 L 10.238281 92.160156 C 10.238281 106.269531 21.730469 117.761719 35.839844 117.761719 L 92.160156 117.761719 C 106.269531 117.761719 117.761719 106.269531 117.761719 92.160156 L 117.761719 35.839844 C 117.761719 21.730469 106.269531 10.238281 92.160156 10.238281 Z M 33.28125 40.960938 L 94.71875 40.960938 C 95.179688 40.960938 95.617188 41.011719 96.023438 41.140625 L 70.859375 66.28125 C 67.070312 70.070312 60.902344 70.070312 57.113281 66.28125 L 31.976562 41.140625 C 32.382812 41.011719 32.820312 40.960938 33.28125 40.960938 Z M 28.339844 44.773438 L 47.589844 64 L 28.339844 83.226562 C 28.210938 82.816406 28.160156 82.378906 28.160156 81.921875 L 28.160156 46.078125 C 28.160156 45.621094 28.210938 45.183594 28.339844 44.773438 Z M 99.660156 44.773438 C 99.789062 45.183594 99.839844 45.621094 99.839844 46.078125 L 99.839844 81.921875 C 99.839844 82.378906 99.789062 82.816406 99.660156 83.226562 L 80.386719 64 Z M 51.199219 67.609375 L 53.480469 69.914062 C 56.371094 72.808594 60.1875 74.238281 63.976562 74.238281 C 67.789062 74.238281 71.578125 72.808594 74.46875 69.914062 L 76.773438 67.609375 L 96.023438 86.859375 C 95.617188 86.988281 95.179688 87.039062 94.71875 87.039062 L 33.28125 87.039062 C 32.820312 87.039062 32.382812 86.988281 31.976562 86.859375 Z M 51.199219 67.609375 "/>
</g>
</svg>
