<svg width="128" height="128" viewBox="0 0 128 128" fill="none" xmlns="http://www.w3.org/2000/svg">
<path d="M116.54 49.055H11.51V94.28H116.54V49.055Z" fill="#030305"/>
<path d="M60.0374 10.5962L11.5571 49.0505L113.789 51.6955C114.009 51.6951 114.228 51.6706 114.442 51.6223C115.725 51.3007 116.62 50.3719 116.605 49.0505L66.5795 10.4702C64.591 9.17658 62.0259 9.30254 60.0374 10.5962Z" fill="#030305"/>
<path d="M12.4387 117.571L63.9551 89.7346" stroke="white" stroke-width="5.4"/>
<path d="M115.723 117.697L64.207 89.4827" stroke="white" stroke-width="5.4"/>
<path d="M103.433 42.5007H24.8549C24.2584 42.5007 23.7749 42.9843 23.7749 43.5807V96.212C23.7749 96.8085 24.2584 97.292 24.8549 97.292H103.433C104.03 97.292 104.513 96.8085 104.513 96.212V43.5807C104.513 42.9843 104.03 42.5007 103.433 42.5007Z" fill="white"/>
<path d="M66.8454 89.2524C65.1106 89.8318 63.2062 89.587 61.6744 88.5876L11.4312 49.0505V115.656C11.4312 117.131 12.8841 118.327 14.4376 118.327H113.788C115.344 118.327 116.605 117.131 116.605 115.656V49.0505L68.6264 88.2717C68.0945 88.7 67.4918 89.032 66.8454 89.2524Z" fill="#E2003F"/>
<path d="M43.1162 49.1765V57.8675H51.8072C51.8076 55.5626 50.8921 53.352 49.2621 51.7221C47.6322 50.0922 45.4214 49.1765 43.1162 49.1765Z" fill="#F5222D"/>
<path d="M42.9901 49.1765C39.6882 49.1773 36.6718 51.0527 35.2046 54.017C33.7373 56.9813 34.0725 60.5227 36.0697 63.1577L42.9901 57.8857V49.1765Z" fill="#E2003F"/>
<path d="M43.0415 66.6844C47.8826 66.6844 51.8071 62.7933 51.8071 57.9934H43.0415L36.0625 63.2511C37.7188 65.4152 40.3015 66.6858 43.0415 66.6844Z" fill="#FAAD14"/>
<path d="M88.8223 50.436H62.642C62.0455 50.436 61.562 50.9196 61.562 51.516V53.3867C61.562 53.9831 62.0455 54.4667 62.642 54.4667H88.8223C89.4188 54.4667 89.9023 53.9831 89.9023 53.3867V51.516C89.9023 50.9196 89.4188 50.436 88.8223 50.436Z" fill="#ADC6FF"/>
<path d="M88.8223 58.4973H62.642C62.0455 58.4973 61.562 58.9808 61.562 59.5773V61.4479C61.562 62.0443 62.0455 62.5279 62.642 62.5279H88.8223C89.4188 62.5279 89.9023 62.0443 89.9023 61.4479V59.5773C89.9023 58.9808 89.4188 58.4973 88.8223 58.4973Z" fill="#ADC6FF"/>
</svg>
