<?xml version="1.0" encoding="UTF-8"?>
<svg xmlns="http://www.w3.org/2000/svg" xmlns:xlink="http://www.w3.org/1999/xlink" viewBox="0 0 128 128" width="128px" height="128px">
<g id="surface11602393">
<path style=" stroke:none;fill-rule:nonzero;fill:rgb(88.627452%,0%,24.705882%);fill-opacity:1;" d="M 92.160156 5.121094 C 91.058594 5.121094 89.949219 5.160156 88.878906 5.28125 C 88.589844 5.308594 88.289062 5.398438 88 5.441406 C 87.21875 5.539062 86.441406 5.679688 85.679688 5.839844 C 85.390625 5.898438 85.171875 5.929688 84.878906 6 C 84.128906 6.179688 83.371094 6.398438 82.640625 6.640625 C 82.398438 6.71875 82.160156 6.789062 81.921875 6.878906 C 81.148438 7.160156 80.339844 7.5 79.601562 7.839844 C 79.421875 7.921875 79.300781 8 79.121094 8.078125 C 78.328125 8.460938 77.550781 8.839844 76.800781 9.28125 C 76.679688 9.351562 76.519531 9.449219 76.398438 9.519531 C 75.601562 10 74.828125 10.488281 74.078125 11.039062 C 74.019531 11.089844 73.980469 11.148438 73.921875 11.199219 C 73.121094 11.800781 72.339844 12.449219 71.601562 13.121094 C 71.578125 13.140625 71.539062 13.101562 71.519531 13.121094 C 70.75 13.820312 70.050781 14.589844 69.359375 15.359375 C 64.480469 20.800781 61.441406 27.96875 61.441406 35.839844 C 61.441406 46.460938 66.910156 53.738281 72.71875 61.441406 C 74.828125 64.238281 77.078125 67.191406 79.199219 70.480469 C 83.769531 76.21875 87.988281 82.96875 90.320312 91.921875 C 90.679688 93.308594 90.671875 94.398438 91.28125 94.878906 C 91.558594 94.941406 91.828125 94.960938 92.160156 94.960938 C 92.488281 94.960938 92.761719 94.929688 93.039062 94.878906 C 93.648438 94.398438 93.640625 93.308594 94 91.921875 C 96.328125 82.96875 100.550781 76.21875 105.121094 70.480469 C 107.238281 67.191406 109.488281 64.230469 111.601562 61.441406 C 111.960938 60.96875 112.289062 60.46875 112.640625 60 C 113.191406 59.269531 113.710938 58.570312 114.238281 57.839844 C 114.488281 57.5 114.710938 57.140625 114.960938 56.800781 C 115.359375 56.230469 115.769531 55.691406 116.160156 55.121094 C 116.441406 54.699219 116.691406 54.261719 116.960938 53.839844 C 117.300781 53.320312 117.691406 52.851562 118 52.320312 C 118.28125 51.851562 118.539062 51.359375 118.800781 50.878906 C 119.078125 50.378906 119.351562 49.871094 119.601562 49.359375 C 119.859375 48.839844 120.089844 48.289062 120.320312 47.761719 C 120.539062 47.269531 120.769531 46.738281 120.960938 46.238281 C 121.191406 45.648438 121.328125 45.089844 121.519531 44.480469 C 121.671875 44 121.871094 43.53125 122 43.039062 C 122.179688 42.320312 122.269531 41.550781 122.398438 40.800781 C 122.46875 40.378906 122.589844 40.03125 122.640625 39.601562 C 122.789062 38.398438 122.878906 37.128906 122.878906 35.839844 C 122.878906 18.898438 109.101562 5.121094 92.160156 5.121094 Z M 16.238281 15.359375 C 10.121094 15.359375 5.121094 20.359375 5.121094 26.480469 L 5.121094 111.761719 C 5.121094 112.339844 5.191406 112.878906 5.28125 113.441406 C 6.101562 118.75 10.699219 122.878906 16.238281 122.878906 L 101.519531 122.878906 C 102.101562 122.878906 102.640625 122.808594 103.199219 122.71875 C 108.230469 121.941406 112.160156 117.789062 112.558594 112.640625 L 112.640625 112.640625 L 112.640625 68.558594 C 111.570312 70.03125 110.488281 71.570312 109.441406 73.199219 L 109.121094 73.679688 C 103.929688 80.199219 100.78125 86.210938 98.960938 93.199219 C 98.878906 93.5 98.851562 93.738281 98.800781 94 C 98.601562 95.039062 98.230469 96.699219 97.039062 98.078125 L 107.519531 108.558594 L 107.519531 111.761719 C 107.519531 115.050781 104.808594 117.761719 101.519531 117.761719 L 98.320312 117.761719 L 62.320312 81.839844 L 71.519531 72.480469 L 80.640625 81.679688 C 79.140625 79.03125 77.359375 76.390625 75.199219 73.679688 L 74.878906 73.199219 C 73.390625 70.890625 71.878906 68.871094 70.398438 66.878906 L 19.441406 117.761719 L 16.238281 117.761719 C 12.949219 117.761719 10.238281 115.050781 10.238281 111.761719 L 10.238281 108.558594 L 62.640625 56.078125 C 59.03125 50.359375 56.320312 43.988281 56.320312 35.839844 C 56.320312 28.230469 58.730469 21.171875 62.800781 15.359375 Z M 31.039062 25.601562 C 35.101562 25.601562 38.738281 27.148438 41.519531 29.679688 L 37.121094 34.078125 C 35.46875 32.671875 33.378906 31.839844 31.039062 31.839844 C 25.828125 31.839844 21.601562 36.070312 21.601562 41.28125 C 21.601562 46.488281 25.828125 50.71875 31.039062 50.71875 C 35.421875 50.71875 38.410156 48.101562 39.519531 44.480469 L 31.039062 44.480469 L 31.039062 38.480469 L 45.761719 38.480469 C 47.050781 44.578125 44.71875 56.878906 31.039062 56.878906 C 22.398438 56.878906 15.359375 49.921875 15.359375 41.28125 C 15.359375 32.640625 22.398438 25.601562 31.039062 25.601562 Z M 92.160156 28.160156 C 96.398438 28.160156 99.839844 31.601562 99.839844 35.839844 C 99.839844 40.078125 96.398438 43.519531 92.160156 43.519531 C 87.921875 43.519531 84.480469 40.078125 84.480469 35.839844 C 84.480469 31.601562 87.921875 28.160156 92.160156 28.160156 Z M 92.160156 28.160156 "/>
</g>
</svg>
