<svg width="128" height="128" viewBox="0 0 128 128" fill="none" xmlns="http://www.w3.org/2000/svg">
<path d="M97.625 46.1588C97.625 27.587 82.5995 12.5285 64.0532 12.5C45.7309 12.4715 30.6646 27.2834 30.3799 45.6272C30.2246 54.7615 33.7968 63.5642 40.2714 70.0026H40.2318L61.9696 93.4249C62.534 94.0331 63.3266 94.3775 64.1558 94.375C64.985 94.3724 65.7755 94.023 66.336 93.4113L87.7706 70.0026H87.731C94.0738 63.6938 97.6358 55.1096 97.625 46.1588Z" fill="#E2003F"/>
<path d="M64.0625 66.875C75.2808 66.875 84.375 57.7808 84.375 46.5625C84.375 35.3442 75.2808 26.25 64.0625 26.25C52.8442 26.25 43.75 35.3442 43.75 46.5625C43.75 57.7808 52.8442 66.875 64.0625 66.875Z" fill="white"/>
</svg>
