<?xml version="1.0" encoding="UTF-8"?>
<svg xmlns="http://www.w3.org/2000/svg" xmlns:xlink="http://www.w3.org/1999/xlink" viewBox="0 0 128 128" width="128px" height="128px">
<g id="surface231092">
<path style=" stroke:none;fill-rule:nonzero;fill:rgb(88.627452%,0%,24.705882%);fill-opacity:1;" d="M 35.839844 10.214844 C 21.730469 10.214844 10.238281 21.707031 10.238281 35.816406 L 10.238281 92.136719 C 10.238281 106.242188 21.730469 117.734375 35.839844 117.734375 L 92.160156 117.734375 C 106.269531 117.734375 117.761719 106.242188 117.761719 92.136719 L 117.761719 35.816406 C 117.761719 21.707031 106.269531 10.214844 92.160156 10.214844 Z M 46.09375 30.804688 C 47.703125 30.875 49.179688 31.78125 50.070312 33.171875 C 51.082031 34.753906 52.65625 37.207031 54.703125 40.410156 C 56.574219 43.332031 56.703125 47.105469 55.035156 50.148438 L 51.285156 55.484375 C 50.269531 56.929688 50.070312 58.777344 50.75 60.40625 C 51.808594 62.9375 53.863281 66.835938 57.515625 70.484375 C 61.164062 74.136719 65.0625 76.191406 67.59375 77.25 C 69.222656 77.929688 71.070312 77.730469 72.515625 76.714844 L 77.851562 72.964844 C 80.894531 71.296875 84.667969 71.429688 87.589844 73.296875 C 90.792969 75.34375 93.246094 76.917969 94.828125 77.929688 C 96.21875 78.820312 97.125 80.296875 97.195312 81.90625 C 97.589844 91.027344 90.519531 94.726562 88.464844 94.726562 C 87.042969 94.726562 69.929688 96.667969 50.628906 77.371094 C 31.332031 58.070312 33.273438 40.957031 33.273438 39.535156 C 33.273438 37.480469 36.972656 30.410156 46.09375 30.804688 Z M 46.09375 30.804688 "/>
</g>
</svg>
