<svg width="256" height="255" viewBox="0 0 256 255" fill="none" xmlns="http://www.w3.org/2000/svg">
<path d="M223.178 88.1545H32.0774C28.1165 88.1545 24.9055 91.3655 24.9055 95.3264V223.175C24.9055 227.136 28.1165 230.347 32.0774 230.347H223.178C227.139 230.347 230.35 227.136 230.35 223.175V95.3264C230.35 91.3655 227.139 88.1545 223.178 88.1545Z" fill="#E4EBF7"/>
<path d="M24.9055 127.5L64.5002 159.113L24.9055 206.441V127.5Z" fill="#FAAD14"/>
<path d="M24.9055 96.309L101.051 158.628L163.861 87.9055H30.828C27.5571 87.9055 24.9055 90.5613 24.9055 93.8374V96.309Z" fill="#FF7946"/>
<path d="M165.966 203.117C159.129 213.247 155.247 223.377 153.153 230.347H224.179C227.45 230.347 230.101 227.692 230.101 224.417V167.344C215.79 168.332 203.036 172.021 192.088 178.366C181.819 184.31 173.03 192.642 165.966 203.117Z" fill="#7CB305"/>
<path d="M184.4 164.553C172.036 171.705 161.501 181.641 153.083 194.093C143.59 208.135 139.01 222.127 136.966 230.098H153.357C155.453 223.143 159.336 213.04 166.177 202.919C173.246 192.462 182.04 184.147 192.315 178.203C203.269 171.875 216.031 168.188 230.35 167.209V151.406C213.177 152.42 197.761 156.832 184.4 164.553Z" fill="white"/>
<path d="M72.22 198.721C54.8358 198.721 40.7104 212.735 40.594 230.098H103.846C103.729 212.735 89.6041 198.721 72.22 198.721Z" fill="#E2003F"/>
<path d="M194.49 91.9573C194.49 54.9588 164.557 24.9594 127.609 24.9026C91.1078 24.8459 61.0928 54.3539 60.5255 90.8982C60.2163 109.095 67.3327 126.632 80.2313 139.458H80.1524L123.458 186.12C124.583 187.332 126.162 188.018 127.814 188.013C129.466 188.008 131.04 187.312 132.157 186.093L174.859 139.458H174.78C187.416 126.89 194.512 109.789 194.49 91.9573Z" fill="#E2003F"/>
<path d="M127.628 133.228C149.977 133.228 168.094 115.11 168.094 92.7615C168.094 70.4125 149.977 52.2952 127.628 52.2952C105.279 52.2952 87.1614 70.4125 87.1614 92.7615C87.1614 115.11 105.279 133.228 127.628 133.228Z" fill="white"/>
</svg>
