<svg width="256" height="255" viewBox="0 0 256 255" fill="none" xmlns="http://www.w3.org/2000/svg">
<path fill-rule="evenodd" clip-rule="evenodd" d="M220.953 170.818C229.421 157.643 234.334 141.966 234.334 125.14C234.334 78.3039 196.015 40.2444 149.185 40.5536C102.971 40.8585 65.557 78.2309 65.1784 124.432C64.7958 171.147 102.656 209.518 149.367 209.729C166.031 209.802 181.579 205.052 194.703 196.801L222.208 205.78C227.182 207.404 231.872 202.643 230.173 197.693L220.953 170.818Z" fill="#A3B5D6"/>
<path fill-rule="evenodd" clip-rule="evenodd" d="M28.4711 191.744C23.5684 184.116 20.724 175.04 20.724 165.299C20.724 138.183 42.9089 116.149 70.021 116.328C96.7763 116.504 118.437 138.141 118.656 164.889C118.878 191.934 96.959 214.149 69.9158 214.271C60.2681 214.314 51.2667 211.564 43.6685 206.787L27.7444 211.985C24.8645 212.925 22.1495 210.169 23.1329 207.303L28.4711 191.744Z" fill="#E4EBF7"/>
<path d="M38.4348 120.784C45.8191 120.784 51.8053 114.797 51.8053 107.412C51.8053 100.027 45.8191 94.04 38.4348 94.04C31.0504 94.04 25.0642 100.027 25.0642 107.412C25.0642 114.797 31.0504 120.784 38.4348 120.784Z" fill="#A3B5D6"/>
</svg>
