<svg width="256" height="255" viewBox="0 0 256 255" fill="none" xmlns="http://www.w3.org/2000/svg">
<path fill-rule="evenodd" clip-rule="evenodd" d="M82.693 110.577C71.1423 110.577 61.7786 101.213 61.7786 89.6626C61.7786 78.1119 71.1423 68.7482 82.693 68.7482C94.2436 68.7482 103.607 78.1119 103.607 89.6626C103.607 101.213 94.2436 110.577 82.693 110.577ZM145.461 99.1232V80.2017L130.548 76.4125C129.454 72.4532 127.883 68.6926 125.899 65.1965L133.766 51.9689L120.387 38.5893L107.159 46.4568C103.663 44.4725 99.9021 42.9013 95.943 41.8075L92.1536 26.8949H73.2321L69.443 41.8075C65.4836 42.9013 61.7231 44.4725 58.227 46.4568L44.9993 38.5893L31.6197 51.9689L39.487 65.1965C37.5032 68.6926 35.9317 72.4534 34.8379 76.4125L19.9253 80.2017V99.1232L34.8379 102.913C35.9317 106.872 37.5032 110.632 39.487 114.129L31.6197 127.356L44.9993 140.736L58.227 132.868C61.7231 134.852 65.4836 136.424 69.443 137.518L73.2321 152.43H92.1536L95.943 137.518C99.9021 136.424 103.663 134.852 107.159 132.868L120.387 140.736L133.766 127.356L125.899 114.129C127.883 110.632 129.454 106.872 130.548 102.913L145.461 99.1232Z" fill="#E2003F"/>
<path fill-rule="evenodd" clip-rule="evenodd" d="M176.686 188.553C165.955 188.553 157.256 179.854 157.256 169.123C157.256 158.392 165.955 149.693 176.686 149.693C187.417 149.693 196.117 158.392 196.117 169.123C196.117 179.854 187.417 188.553 176.686 188.553ZM235 177.912V160.334L221.146 156.813C220.129 153.135 218.67 149.641 216.826 146.393L224.135 134.104L211.705 121.674L199.416 128.983C196.168 127.14 192.674 125.68 188.996 124.664L185.476 110.809H167.896L164.376 124.664C160.698 125.68 157.204 127.14 153.956 128.983L141.667 121.674L129.237 134.104L136.546 146.393C134.703 149.641 133.243 153.135 132.227 156.813L118.372 160.334V177.912L132.227 181.433C133.243 185.111 134.703 188.605 136.546 191.853L129.237 204.142L141.667 216.572L153.956 209.263C157.204 211.106 160.698 212.566 164.376 213.582L167.896 227.437H185.476L188.996 213.582C192.674 212.566 196.168 211.106 199.416 209.263L211.705 216.572L224.135 204.142L216.826 191.853C218.67 188.605 220.129 185.111 221.146 181.433L235 177.912Z" fill="#030305"/>
<path fill-rule="evenodd" clip-rule="evenodd" d="M182.977 84.0066L159.93 79.5573L184.311 51.9089C182.137 51.561 179.909 51.3776 177.637 51.3776C154.502 51.3776 135.747 70.1328 135.747 93.2684C135.747 116.404 154.502 135.159 177.637 135.159C200.773 135.159 219.528 116.404 219.528 93.2684C219.528 91.6397 219.432 90.0341 219.251 88.454L182.977 84.0066Z" fill="#A3B5D6"/>
<path fill-rule="evenodd" clip-rule="evenodd" d="M182.977 84.0066L139.63 75.6385C137.14 80.9975 135.746 86.9697 135.746 93.2684C135.746 98.9389 136.876 104.345 138.917 109.278L45.9528 195.52C40.2849 213.373 57.3856 230.058 75.0936 223.951L76.329 223.525L161.934 132.113C166.784 134.076 172.084 135.159 177.637 135.159C200.773 135.159 219.528 116.404 219.528 93.2684C219.528 80.7025 213.994 69.4303 205.231 61.7522L182.977 84.0066Z" fill="#CCD7EE"/>
<path fill-rule="evenodd" clip-rule="evenodd" d="M138.836 140.846L129.722 131.731L138.836 122.617L147.951 131.731L138.836 140.846Z" fill="#A3B5D6"/>
</svg>
