<svg width="256" height="255" viewBox="0 0 256 255" fill="none" xmlns="http://www.w3.org/2000/svg">
<g clip-path="url(#clip0_100_1206)">
<path fill-rule="evenodd" clip-rule="evenodd" d="M130.682 255.364C109.277 255.364 92.4696 237.026 94.3418 215.707L99.2378 160.016H162.127L167.019 215.707C168.895 237.026 152.088 255.364 130.682 255.364Z" fill="#EFADAB"/>
<path fill-rule="evenodd" clip-rule="evenodd" d="M187.052 116.293C187.052 58.9025 173.122 31.5929 129.888 31.5929C90.2308 31.5929 67.7824 58.9025 72.8918 116.273C72.8918 116.273 72.8918 145.742 92.153 172.068C99.432 182.02 115.992 193.696 130.282 194.073C144.756 194.446 158.405 184.959 168.41 171.675C179.162 157.394 187.052 138.273 187.052 116.293Z" fill="#FFC2BD"/>
<path fill-rule="evenodd" clip-rule="evenodd" d="M130.514 195.812C122.138 195.812 112.35 192.035 104.975 185.952C104.531 185.583 104.468 184.922 104.837 184.478C105.201 184.03 105.863 183.968 106.311 184.336C113.326 190.126 122.599 193.718 130.514 193.718C137.848 193.718 148.678 189 157.465 181.97C157.917 181.615 158.575 181.682 158.935 182.134C159.295 182.586 159.224 183.243 158.772 183.603C149.503 191.018 138.409 195.812 130.514 195.812Z" fill="#D18888"/>
<path fill-rule="evenodd" clip-rule="evenodd" d="M137.62 151.869H127.418C126.365 151.869 125.511 151.016 125.511 149.965C125.511 148.914 126.365 148.061 127.418 148.061H135.664L134.909 119.184C134.901 118.822 134.996 118.464 135.183 118.152L141 108.501C141.541 107.598 142.716 107.309 143.616 107.853C144.52 108.394 144.81 109.563 144.264 110.466L138.734 119.641L139.527 149.915C139.539 150.43 139.344 150.925 138.986 151.294C138.627 151.66 138.135 151.869 137.62 151.869Z" fill="#D18888"/>
<path fill-rule="evenodd" clip-rule="evenodd" d="M91.0563 110.906C90.3192 110.906 89.6073 110.517 89.226 109.83C88.6607 108.817 89.025 107.544 90.0386 106.984C101.25 100.758 118.367 105.028 119.087 105.213C120.206 105.497 120.884 106.636 120.599 107.758C120.31 108.876 119.171 109.558 118.053 109.269C117.894 109.228 101.82 105.233 92.0699 110.643C91.7516 110.823 91.3997 110.906 91.0563 110.906Z" fill="#5A4721"/>
<path fill-rule="evenodd" clip-rule="evenodd" d="M169.531 110.907C169.187 110.907 168.835 110.823 168.517 110.643C158.763 105.225 143.64 109.219 143.485 109.261C142.387 109.575 141.223 108.905 140.917 107.788C140.616 106.674 141.277 105.522 142.396 105.221C143.074 105.033 159.32 100.745 170.548 106.984C171.562 107.545 171.926 108.817 171.361 109.831C170.98 110.517 170.268 110.907 169.531 110.907Z" fill="#5A4721"/>
<path fill-rule="evenodd" clip-rule="evenodd" d="M162.185 125.839C162.185 130.009 159.63 133.391 156.479 133.391C153.329 133.391 150.777 130.009 150.777 125.839C150.777 121.668 153.329 118.286 156.479 118.286C159.63 118.286 162.185 121.668 162.185 125.839Z" fill="#5C4E4A"/>
<path fill-rule="evenodd" clip-rule="evenodd" d="M103.322 133.391C100.176 133.391 97.6204 130.009 97.6204 125.839C97.6204 121.668 100.176 118.286 103.322 118.286C106.476 118.286 109.028 121.668 109.028 125.839C109.028 130.009 106.476 133.391 103.322 133.391Z" fill="#5C4E4A"/>
<path fill-rule="evenodd" clip-rule="evenodd" d="M131.334 167.169C123.503 167.169 118.372 165.549 118.054 165.444C116.952 165.088 116.353 163.912 116.705 162.811C117.061 161.714 118.242 161.115 119.34 161.463C119.448 161.496 130.208 164.846 144.142 161.421C145.268 161.14 146.399 161.831 146.675 162.953C146.952 164.075 146.265 165.21 145.143 165.486C140.025 166.746 135.33 167.169 131.334 167.169Z" fill="#D18888"/>
<path fill-rule="evenodd" clip-rule="evenodd" d="M131.492 178.487C127.543 178.487 124.958 177.247 124.795 177.168C124.016 176.787 123.698 175.845 124.079 175.066C124.464 174.292 125.394 173.969 126.177 174.346C126.374 174.446 131.165 176.674 137.627 174.162C138.432 173.86 139.345 174.245 139.659 175.058C139.973 175.866 139.575 176.774 138.763 177.088C136.061 178.139 133.586 178.487 131.492 178.487Z" fill="#D18888"/>
<path fill-rule="evenodd" clip-rule="evenodd" d="M122.71 166.906C116.917 165.805 113.425 163.492 113.209 163.344C112.461 162.839 112.237 161.6 112.703 160.567C113.171 159.54 114.157 159.118 114.904 159.613C114.978 159.662 122.31 164.465 133.257 163.06C134.143 162.943 134.85 163.781 134.845 164.922C134.84 166.063 134.12 167.081 133.238 167.195C129.217 167.713 125.665 167.468 122.71 166.906Z" fill="#D18888"/>
<path fill-rule="evenodd" clip-rule="evenodd" d="M141.394 166.512C135.664 167.903 131.528 167.24 131.27 167.195C130.381 167.044 129.665 166.008 129.663 164.875C129.664 163.746 130.387 162.954 131.272 163.097C131.36 163.11 140.022 164.454 149.409 158.652C150.167 158.179 151.158 158.65 151.625 159.691C152.092 160.732 151.857 161.957 151.101 162.425C147.653 164.558 144.318 165.803 141.394 166.512Z" fill="#D18888"/>
<path fill-rule="evenodd" clip-rule="evenodd" d="M118.831 31.2358C118.479 28.7744 117.923 27.1583 117.077 27.0278C106.858 25.4579 74.6257 23.8878 63.6194 74.1823C62.6074 77.9742 62.2453 81.1814 61.8797 84.4209C61.1087 91.2499 60.3216 98.2223 53.3962 111.117C39.8466 136.35 51.0821 148.477 59.0573 157.085C62.88 161.211 65.954 164.528 65.19 168.093C62.832 179.096 63.6194 193.632 80.1289 204.635C84.5149 207.558 89.8993 209.371 95.4421 210.459L98.3848 176.986C96.239 174.933 94.379 172.841 92.9016 170.821C73.6403 144.496 73.6403 115.026 73.6403 115.026C69.0623 63.6238 86.607 36.3532 118.831 31.2358Z" fill="#45330E"/>
<path fill-rule="evenodd" clip-rule="evenodd" d="M73.5255 113.704C73.5616 114.143 73.5994 114.583 73.6388 115.026C73.6388 115.026 73.6388 132.374 82.3387 152.341C62.1008 150.853 56.813 121.416 62.6596 115.32C66.0809 111.748 70.2092 112.258 73.5255 113.704Z" fill="#EFADAB"/>
<path fill-rule="evenodd" clip-rule="evenodd" d="M177.803 91.4476C186.845 100.487 187.729 117.137 187.729 117.137C187.729 117.137 209.248 26.2194 129.849 26.2194C51.2337 26.2194 73.7868 116.84 73.7868 116.84C73.7868 116.84 74.93 101.521 81.1076 93.4112L84.9313 58.5907L121.028 59.7644L173.309 58.6535L177.803 91.4476Z" fill="#45330E"/>
<path fill-rule="evenodd" clip-rule="evenodd" d="M121.006 60.8225C121.006 60.8225 101.476 57.3603 90.738 68.6809C79.9284 80.077 85.2348 93.826 80.1253 96.9702C71.4768 112.293 75.0159 115.048 75.8033 129.584C67.1547 106.792 67.9421 90.6861 69.119 76.5393C69.9273 66.8513 72.0966 48.3379 92.5347 45.9809C112.977 43.6237 121.006 60.8225 121.006 60.8225Z" fill="#45330E"/>
<path fill-rule="evenodd" clip-rule="evenodd" d="M120.542 60.7142C120.542 60.7142 118.255 41.175 117.861 28.6023C117.782 26.1156 130.518 21.6107 134.371 20.744C158.742 15.2428 167.21 38.7216 188.612 50.6033C209.837 62.3931 202.855 68.2753 208.266 82.041C212.593 93.0436 221.631 89.5309 227.921 104.046C233.031 115.832 222.359 123.091 228.709 131.548C238.14 144.121 242.856 148.052 240.498 159.055C237.353 170.057 212.982 180.273 212.982 180.273L209.054 165.343C209.054 165.343 211.487 180.365 205.908 184.987C200.594 189.387 186.253 197.564 167.39 206.992C165.028 200.708 159.341 185.431 166.532 171.518C175.67 153.838 167.311 152.997 165.028 136.263C162.67 118.976 172.106 111.117 157.167 99.3277C145.189 89.8743 147.35 82.7233 144.59 72.6085C139.874 55.3218 120.542 60.7142 120.542 60.7142Z" fill="#543E11"/>
</g>
<defs>
<clipPath id="clip0_100_1206">
<rect width="255" height="255" fill="white" transform="translate(0.00317383 0.000244141)"/>
</clipPath>
</defs>
</svg>
